<svg xmlns="http://www.w3.org/2000/svg" viewBox="0 0 64 64">
<defs>
<linearGradient id="rim" x1="0" y1="0" x2="1" y2="1">
<stop offset="0" stop-color="#E8E6E2"/><stop offset=".5" stop-color="#8A8A90"/><stop offset="1" stop-color="#4A4A52"/>
</linearGradient>
<linearGradient id="glow" x1="0" y1="0" x2="0" y2="1">
<stop offset="0" stop-color="#4FF5EA"/><stop offset="1" stop-color="#0FB9AE"/>
</linearGradient>
</defs>
<rect width="64" height="64" rx="14" fill="#16151A"/>
<circle cx="32" cy="32" r="27" fill="none" stroke="url(#rim)" stroke-width="3.5"/>
<circle cx="32" cy="32" r="23" fill="#1C1B21"/>
<g fill="url(#glow)">
<path d="M32 22c-1.2 0-2.2.5-2.6 1.6C26 22.2 20 20.5 15.5 23.5c-3 2-4.3 6-3.3 9.6 1.5 5.5 7 9.4 13.4 9.2 2.6-.1 5-1 6.4-2.4 1.4 1.4 3.8 2.3 6.4 2.4 6.4.2 11.9-3.7 13.4-9.2 1-3.6-.3-7.6-3.3-9.6C44 20.5 38 22.2 34.6 23.6 34.2 22.5 33.2 22 32 22Z"/>
</g>
<g fill="#16151A" opacity=".85">
<ellipse cx="24.6" cy="30.6" rx="2.6" ry="3.4"/>
<ellipse cx="39.4" cy="30.6" rx="2.6" ry="3.4"/>
</g>
<g stroke="url(#glow)" stroke-width="2" fill="none" stroke-linecap="round">
<path d="M30 21c-1.5-3.5-4.5-6-8-7M34 21c1.5-3.5 4.5-6 8-7"/>
</g>
<rect x="30.6" y="40.5" width="2.8" height="8" rx="1.4" fill="url(#glow)"/>
</svg>
